<?xml version="1.0" standalone="no"?>
<!DOCTYPE svg PUBLIC "-//W3C//DTD SVG 20010904//EN"
 "http://www.w3.org/TR/2001/REC-SVG-20010904/DTD/svg10.dtd">
<svg version="1.0" xmlns="http://www.w3.org/2000/svg"
 width="1280.000000pt" height="1060.000000pt" viewBox="0 0 1280.000000 1060.000000"
 preserveAspectRatio="xMidYMid meet">
<metadata>
Created by potrace 1.15, written by Peter Selinger 2001-2017
</metadata>
<g transform="translate(0.000000,1060.000000) scale(0.100000,-0.100000)"
fill="#000000" stroke="none">
<path d="M1115 10590 c-222 -24 -428 -93 -574 -192 -73 -50 -174 -156 -231
-243 -150 -231 -239 -514 -292 -930 -16 -134 -16 -693 0 -845 65 -582 186
-1050 375 -1452 175 -369 416 -656 650 -769 52 -25 54 -31 32 -104 -25 -82
-82 -380 -102 -530 -23 -176 -26 -739 -5 -905 75 -593 258 -1142 545 -1630 31
-52 54 -96 53 -98 -3 -2 -791 143 -1023 189 -176 35 -339 -105 -320 -273 10
-84 62 -161 134 -200 44 -24 517 -118 1555 -309 l108 -20 217 -217 c120 -120
264 -255 320 -302 56 -46 101 -86 99 -87 -4 -4 -35 -10 -1361 -259 -484 -91
-898 -173 -920 -183 -123 -54 -186 -209 -135 -329 39 -90 145 -162 239 -162
14 0 170 27 346 60 355 67 2042 385 2284 430 l155 29 55 -33 c280 -167 729
-371 1059 -481 112 -37 114 -38 107 -64 -44 -171 -19 -365 55 -440 34 -33 34
-33 430 -91 753 -111 1250 -157 1570 -146 357 11 920 77 1550 182 168 28 185
36 220 104 49 96 52 312 6 421 -5 12 6 19 51 33 270 84 679 264 980 432 l132
74 343 -64 c189 -36 606 -115 928 -175 322 -61 779 -147 1015 -191 311 -59
443 -80 477 -76 57 6 115 35 158 78 119 118 81 330 -72 405 -29 14 -231 56
-613 128 -1200 224 -1629 306 -1632 308 -1 2 37 35 85 74 122 100 354 320 463
438 50 55 94 104 98 108 4 4 66 19 137 32 811 150 1423 269 1449 279 124 52
191 220 136 341 -26 59 -103 122 -170 142 -66 19 -23 25 -666 -96 -231 -44
-421 -78 -422 -77 -2 2 22 45 52 97 78 131 214 410 273 559 277 704 356 1432
232 2163 -18 108 -71 342 -84 377 -5 11 10 23 57 43 303 132 591 509 786 1031
139 369 219 724 273 1206 16 152 16 711 0 845 -41 322 -104 566 -197 760 -170
355 -401 522 -825 596 -48 9 -159 14 -305 14 -244 -1 -358 -12 -605 -61 -855
-170 -1776 -650 -2214 -1152 l-77 -89 -127 44 c-1285 449 -2755 456 -4049 21
l-152 -51 -47 54 c-367 423 -1037 820 -1784 1058 -202 64 -433 117 -661 151
-152 23 -495 34 -624 20z"/>
</g>
</svg>
